<?xml version="1.0" encoding="iso-8859-1"?>
<!-- Generator: Adobe Illustrator 19.0.0, SVG Export Plug-In . SVG Version: 6.00 Build 0)  -->
<svg version="1.1" id="Capa_1" xmlns="http://www.w3.org/2000/svg" xmlns:xlink="http://www.w3.org/1999/xlink" x="0px" y="0px"
	 viewBox="0 0 511.998 511.998" style="enable-background:new 0 0 511.998 511.998;" xml:space="preserve">
<g>
	<g>
		<g>
			<path d="M220.651,308.568c-0.363,0.259-0.662,0.582-1.056,0.81l-13.417,8.034l17.037,13.399
				c3.519,2.754,8.509,2.575,11.821-0.425l7.029-6.667L220.651,308.568z"/>
			<polygon points="251.519,349.811 259.455,349.811 264.166,342.737 255.487,334.511 246.809,342.737 			"/>
			<path d="M272.291,119.411h-32.7c-19.206,0.022-34.77,15.586-34.792,34.792v27.683c-0.008,4.486-1.053,8.91-3.054,12.925
				l-1.129,2.242c-0.816,1.639-1.242,3.444-1.246,5.275v19.258c-0.006,3.135,1.244,6.143,3.471,8.35
				c4.07,4.085,6.84,9.284,7.958,14.942c2.357,9.95,6.795,19.288,13.021,27.4c1.738,2.385,2.683,5.257,2.7,8.208v11.327
				l28.967,20.494l29.204-20.663c0.256-0.13,0.519-0.246,0.788-0.348v-10.81c0.017-2.948,0.958-5.816,2.691-8.201
				c6.234-8.117,10.675-17.465,13.029-27.425c1.12-5.648,3.886-10.838,7.95-14.916c2.231-2.208,3.484-5.219,3.479-8.358v-19.258
				c-0.003-1.831-0.431-3.637-1.25-5.275l-1.117-2.233c-2.006-4.017-3.055-8.444-3.062-12.933v-27.567
				C307.178,135.049,291.562,119.432,272.291,119.411z"/>
			<path d="M228.87,349.853c-5.905,0.013-11.637-1.986-16.254-5.667l-22.112-17.388l-31.125,18.638
				c-8.894,5.259-14.34,14.834-14.313,25.167l0,13.342h79.986l12.092-24.932l-6.232-9.348
				C230.229,349.718,229.554,349.853,228.87,349.853z"/>
			<path d="M287.707,330.853l17.531-13.789l-12.948-7.753c-0.506-0.338-0.989-0.71-1.444-1.114l-21.939,15.522l7.042,6.675
				C279.241,333.374,284.194,333.567,287.707,330.853z"/>
			<path d="M366.933,383.944l0-13.342c0.025-10.337-5.423-19.914-14.321-25.175l-31.698-18.979l-22.606,17.779
				c-4.6,3.661-10.309,5.647-16.188,5.633c-0.691,0-1.373-0.136-2.062-0.19l-6.153,9.228l12.9,25.045H366.933z"/>
			<polygon points="252.304,366.878 244.027,383.944 267.605,383.944 258.815,366.878 			"/>
			<path d="M486.263,248.063c-4.01-116.506-94.415-211.657-210.564-221.619l11.933-11.934c3.281-3.341,3.256-8.701-0.054-12.012
				s-8.671-3.335-12.012-0.054l-25.593,25.592c-3.325,3.341-3.325,8.741,0,12.081l25.593,25.592c2.149,2.188,5.307,3.055,8.271,2.27
				c2.965-0.785,5.28-3.1,6.065-6.065c0.785-2.965-0.082-6.122-2.27-8.271l-9.936-9.936
				c106.724,10.922,188.74,99.392,191.562,206.636c2.822,107.244-74.429,199.905-180.43,216.425
				c-4.405,0.68-7.545,4.636-7.207,9.081c0.338,4.445,4.041,7.88,8.498,7.886c0.441,0,0.881-0.034,1.317-0.1
				C406.626,465.712,490.273,364.569,486.263,248.063z"/>
			<path d="M262.025,471.77l-25.593-25.592c-3.341-3.281-8.701-3.256-12.012,0.054s-3.335,8.671-0.054,12.012l9.936,9.936
				c-106.723-10.923-188.738-99.393-191.56-206.636S117.169,61.64,223.17,45.12c4.658-0.72,7.849-5.08,7.129-9.738
				c-0.72-4.658-5.08-7.849-9.738-7.129C105.373,46.178,21.725,147.32,25.735,263.826s94.415,211.657,210.564,221.619
				l-11.933,11.933c-2.188,2.149-3.055,5.307-2.27,8.271c0.785,2.965,3.1,5.28,6.065,6.065c2.965,0.785,6.122-0.082,8.271-2.27
				l25.593-25.593C265.351,480.511,265.351,475.111,262.025,471.77L262.025,471.77z"/>
		</g>
	</g>
</g>
<g>
</g>
<g>
</g>
<g>
</g>
<g>
</g>
<g>
</g>
<g>
</g>
<g>
</g>
<g>
</g>
<g>
</g>
<g>
</g>
<g>
</g>
<g>
</g>
<g>
</g>
<g>
</g>
<g>
</g>
</svg>
